<?xml version="1.0" encoding="utf-8"?>
<svg xmlns="http://www.w3.org/2000/svg" xmlns:xlink="http://www.w3.org/1999/xlink" version= "1.1" width="998px" height="1000px" viewBox="-139 213 998 1000">
<g id="layer1">
<g style="fill:rgb(129,206,255); fill-opacity:1.0; stroke-linejoin: miter">
<path d="M-139.001,211.90675C-139.29068,211.90675,-139.5685,212.02184,-139.77333,212.22667C-139.97816,212.4315,-140.09325,212.70932,-140.09325,212.999L-140.09224,1213.0C-140.09224,1213.6033,-139.60323,1214.0923,-139.0,1214.0923L859.001,1214.0933C859.29065,1214.0933,859.5685,1213.9781,859.7733,1213.7733C859.97815,1213.5685,860.0932,1213.2906,860.0932,1213.001L860.0922,213.0C860.0922,212.39677,859.6032,211.90776,859.0,211.90776L-139.001,211.90675 Z"/>
</g>
<g style="fill:rgb(255,255,255); fill-opacity:1.0; stroke-linejoin: miter">
<path d="M623.3333,570.7566C623.0175,554.1444,622.716,538.4511,622.7161,523.26904C622.7161,511.37485,613.07605,501.732,601.17896,501.73193C509.07266,501.732,438.9455,475.2616,380.4914,418.42706C372.1292,410.29465,358.8224,410.29752,350.46317,418.427C292.01468,475.26163,221.89897,501.73206,129.79831,501.73206C117.90415,501.73206,108.26136,511.3749,108.26136,523.2691C108.26135,538.45404,107.962685,554.1531,107.64391,570.7681C104.69187,725.36316,100.64856,937.08844,358.42264,1026.4379C360.7084,1027.2306,363.09183,1027.6268,365.47525,1027.6268C367.85873,1027.6268,370.24503,1027.2306,372.52786,1026.4379C630.3222,937.0855,626.2851,725.3545,623.3333,570.7566 Z M365.47812,983.2347C144.403,902.9251,147.74564,726.9971,150.71208,571.5893C150.89015,562.2624,151.06247,553.2227,151.18306,544.3609C237.44574,540.7196,306.4272,514.5796,365.47864,463.13773C424.53586,514.5795,493.52875,540.72253,579.7972,544.36084C579.9178,553.2197,580.09,562.2537,580.268,571.5749C583.2314,726.9884,586.5706,902.9221,365.47812,983.2347 Z"/>
</g>
<g style="fill:rgb(255,255,255); fill-opacity:1.0; stroke-linejoin: miter">
<path d="M435.66727,652.5823L435.6674,602.94385C435.66742,564.24695,404.18546,532.76514,365.48853,532.76514C326.79144,532.76514,295.3095,564.2471,295.3095,602.9438L295.3095,652.5825L247.38242,652.58325L247.3822,864.8299L483.59406,864.83044L483.5943,652.5823L435.66727,652.5831 Z M315.8497,602.9438C315.84976,575.5729,338.11725,553.3052,365.48846,553.3052C392.85962,553.3052,415.1271,575.5728,415.1271,602.9437L415.12698,652.5823L315.84967,652.5831L315.8497,602.9438 Z M463.05386,844.2897L267.92233,844.29034L267.9225,673.12256L463.0542,673.12317L463.05386,844.2897 Z"/>
</g>
<g style="fill:rgb(255,255,255); fill-opacity:1.0; stroke-linejoin: miter">
<path d="M387.57327,760.4657L387.37167,763.4624Q385.93832,772.5189,378.98373,777.9488Q371.981,783.37415,362.49136,782.34863Q353.43472,780.9153,348.00485,773.96106Q346.2651,771.713,345.13876,769.06213L344.19214,766.33673Q343.412,763.5237,343.4032,760.4657Q343.64008,751.08105,349.87177,744.8495Q356.1035,738.61786,365.48825,738.38104Q374.87305,738.61786,381.10474,744.8495Q387.33643,751.08105,387.57327,760.4657"/>
</g>
<g style="fill:rgb(255,255,255); fill-opacity:1.0; stroke-linejoin: miter">
<path d="M355.4116,766.59827L365.48825,766.5984L375.5649,766.59863Q375.56485,792.033,375.56485,817.4675Q365.4882,817.4677,355.41153,817.4677Q355.41153,792.033,355.4116,766.59827"/>
</g>
<g>
<g style="fill:rgb(255,255,255); fill-opacity:1.0; stroke-linejoin: miter">
<path d="M230.68288,449.7322C234.329,450.94052,237.46222,453.6076,238.95354,456.85532C240.08081,459.3374,240.03738,464.77188,238.86708,467.17767C237.6236,469.69287,235.46867,471.95117,233.02321,473.225C231.2346,474.17075,230.79636,474.60782,230.61281,475.51974C230.5027,476.13953,230.38779,480.40707,230.38185,484.9294L230.3711,493.20953L232.33955,494.05096C234.70935,495.03894,237.69626,498.0338,238.78711,500.51562C239.84213,502.85132,240.0922,506.93674,239.359,509.45236C237.7838,514.81226,232.63602,518.3437,226.58163,518.2264C222.05884,518.11115,217.86778,515.4062,215.86726,511.24606C214.9941,509.45758,214.88573,508.764,214.8531,505.73657C214.85704,502.74582,215.00385,501.98032,215.80862,500.2305C217.16177,497.3505,219.13408,495.34686,221.83493,494.03735L224.17061,492.94617L224.10968,483.7546L224.01225,474.5628L222.55403,473.90454C218.7266,472.11218,216.35925,469.37347,215.23372,465.46906C213.01912,457.55103,218.4271,449.89874,226.7078,449.36203C228.23979,449.29117,229.73526,449.40237,230.68288,449.7322 Z M223.92659,456.47128C219.98451,458.47183,219.93874,465.58484,223.83899,467.52292C225.73453,468.51007,229.23601,468.4055,230.76935,467.34958C232.92345,465.89307,233.50842,464.76352,233.51201,462.06436C233.51561,459.32886,232.7152,457.75906,230.63765,456.47955C229.10692,455.5298,225.7514,455.52545,223.92659,456.47128 Z M223.83269,500.31345C221.60619,501.55106,221.05774,502.64432,221.0538,505.6353C221.05061,508.00632,221.1597,508.3709,222.17941,509.64917C222.83484,510.45236,224.0373,511.32962,225.02167,511.73175C226.51619,512.3904,226.9174,512.42737,228.41338,512.0279C230.63914,511.4107,232.02644,510.39127,232.90413,508.6779C233.74533,507.00125,233.85822,504.3388,233.13066,502.91556C232.40274,501.52856,230.65411,499.95758,229.41443,499.5548C227.9197,499.07864,225.4024,499.40366,223.83269,500.31345 Z"/>
</g>
<g style="fill:rgb(255,255,255); fill-opacity:1.0; stroke-linejoin: miter">
<path d="M72.25146,528.9277C74.36577,529.9518,77.680885,533.16547,78.73569,535.2824C79.24484,536.2319,79.79027,537.83734,79.97154,538.8223C80.91315,543.7842,77.51305,549.9441,72.62234,552.19904L70.46903,553.18115L70.43902,576.2698L70.40905,599.32117L81.80408,615.89594C88.102585,624.9861,93.85476,633.34625,94.61887,634.5144L96.0022,636.5952L105.0847,636.6076L114.13037,636.6201L115.00834,634.6137C116.10593,632.17126,118.58945,629.694,121.36309,628.3484C123.187965,627.475,123.881096,627.32996,126.72627,627.33356C129.35243,627.3371,130.37361,627.5212,131.79501,628.17975C134.71132,629.5328,136.56923,631.2862,137.91507,634.02344C139.00604,636.2499,139.115,636.7607,139.11111,639.7519C139.10753,642.52356,138.92421,643.3621,138.11961,645.11194C136.98558,647.5543,134.50206,650.10443,132.16599,651.23236C129.90338,652.3232,125.48949,652.6092,122.82778,651.83966C119.2911,650.7777,115.83018,647.4904,114.7769,644.17L114.37749,642.8192L106.31697,642.7726C97.0156,642.76056,93.368286,642.5375,92.7121,641.9895C92.165955,641.551,86.01334,632.9715,80.33366,624.7208C78.112976,621.50824,73.59836,614.9369,70.24906,610.1178L64.205635,601.3557L64.21381,594.9731C64.218315,591.4714,64.12316,580.60187,63.98993,570.8266L63.79411,553.06323L62.29959,552.51416C60.03938,551.63544,57.16121,548.9326,55.996845,546.524C55.087738,544.66266,54.978878,544.07855,54.983482,540.61346C54.98787,537.185,55.098297,536.60187,55.975727,534.96124C57.145725,532.70135,59.775192,530.2247,62.038002,529.2059C64.55624,528.0788,70.10049,527.94,72.25146,528.9277 Z M63.671387,535.3726C63.123787,535.80963,62.247276,536.6838,61.808475,537.3761C60.639294,539.0527,60.780163,542.7729,62.054462,544.562C65.54988,549.4906,73.7601,546.83905,73.76807,540.7836C73.77045,538.92377,72.97003,537.354,71.22114,535.747C69.6912,534.359,69.6547,534.359,67.17428,534.5018C65.38676,534.6087,64.401344,534.8265,63.671387,535.3726 Z M123.6168,634.1509C121.24426,635.3881,120.54978,636.55414,120.39997,639.5813L120.25081,642.1342L122.254135,644.1796L124.294365,646.1883L126.84757,646.0454C129.87527,645.904,131.04317,645.21204,132.24998,642.84265C133.2373,640.98413,133.35008,638.21204,132.58638,636.71564C130.98555,633.6132,126.938416,632.47687,123.6168,634.1509 Z"/>
</g>
<g style="fill:rgb(255,255,255); fill-opacity:1.0; stroke-linejoin: miter">
<path d="M112.27917,459.42532C115.59731,460.30478,119.240875,463.40997,120.69574,466.54837L121.56879,468.48276L132.14613,468.6788C144.03664,468.91345,144.25555,468.94965,144.65344,471.43048C144.79831,472.19675,144.89699,480.36734,144.885,489.59564L144.86305,506.41046L146.8678,507.39767C149.7476,508.8242,151.8604,510.906,153.0969,513.60657C154.0064,515.5771,154.15123,516.30707,154.11115,519.1522C154.1073,522.03357,153.99709,522.72644,153.1192,524.549C151.9491,526.88214,149.50209,529.2496,147.02036,530.4134C145.67001,531.03174,144.68486,531.1766,141.54825,531.1724C138.22906,531.168,137.4996,531.0576,136.1511,530.32666C133.74535,529.04675,131.45053,526.7458,130.35902,524.48303C128.94017,521.5997,128.76344,517.405,129.93463,514.3791C130.95937,511.64474,133.40665,509.02167,136.3265,507.4933L138.47987,506.36563L138.61014,490.57184L138.70384,474.81534L130.13223,474.8053L121.59694,474.79285L120.60935,476.79807C119.40248,479.24014,116.3713,482.19067,113.99898,483.2455C112.86775,483.71805,111.18959,484.0442,109.21962,484.18723C106.30166,484.3295,106.08275,484.29257,103.49474,483.01273C99.193504,480.8914,96.900085,477.46005,96.50506,472.6082C95.89469,465.2396,101.00854,459.4833,108.37686,459.23764C109.90885,459.16693,111.65954,459.24182,112.27917,459.42532 Z M106.25292,465.72745C104.09923,466.81888,102.41791,469.4795,102.45154,471.70404C102.55406,477.212,109.29805,480.06583,113.27872,476.31424C114.81233,474.89368,115.36129,473.5812,115.364,471.5019C115.36687,469.2769,114.71214,467.85403,113.108826,466.61188C110.776855,464.85788,108.55206,464.59955,106.25292,465.72745 Z M138.50755,513.29584C136.50026,514.2415,135.25731,516.3189,135.25429,518.69C135.25114,521.0973,136.0515,522.6668,137.94656,524.05505C142.53783,527.38043,148.5241,524.0323,148.05746,518.37836C147.66216,513.70856,142.96007,511.18604,138.50755,513.29584 Z"/>
</g>
<g style="fill:rgb(255,255,255); fill-opacity:1.0; stroke-linejoin: miter">
<path d="M15.3688545,667.2455C18.722586,668.59906,20.61706,670.4252,22.363306,673.89264L23.309137,675.7906L29.25437,676.0171C35.418407,676.2439,48.91366,676.4806,74.77387,676.8422C99.248,677.166,112.998566,677.4392,116.90105,677.6631L120.54844,677.8502L121.82811,675.4441C123.327225,672.60126,125.8837,670.0513,128.32896,668.9967C130.7013,667.9422,135.04202,667.692,137.3754,668.498C141.13055,669.7793,144.15376,672.92017,145.57088,677.0068C146.44295,679.63434,146.4404,681.5309,145.52504,684.26495C143.51135,690.17145,138.4736,693.484,132.2369,693.07477C127.8968,692.7776,124.43464,690.40204,121.996735,686.05817L120.723045,683.72217L102.55906,683.4803C92.60147,683.358,79.98158,683.15924,74.58345,683.04254C69.148766,682.9624,55.434708,682.7255,44.091194,682.6017L23.410358,682.31946L22.45938,684.32434C21.325508,686.69403,18.549812,689.4259,16.104538,690.55334C14.717693,691.20807,13.732598,691.35254,10.741676,691.34863C7.240253,691.3441,6.984729,691.3077,4.725015,690.0276C-0.778612,686.9933,-3.0328097,681.2637,-1.1647614,675.2114C0.22701356,670.83655,2.6373527,668.50525,7.235007,667.08875C10.336684,666.1448,12.816944,666.18445,15.3688545,667.2455 Z M8.722858,672.9631C3.2492952,674.7798,2.8747284,682.36566,8.1238575,684.9257C10.0557575,685.8765,11.405337,685.87836,13.339516,685.00574C15.675495,683.9509,16.918009,682.05566,17.067541,679.3572C17.217184,676.4392,16.198187,674.57776,13.865402,673.371C12.0791855,672.49316,10.583862,672.3455,8.722858,672.9631 Z M129.52419,675.5269C126.895256,677.6392,126.23452,680.7391,127.76271,683.69464C129.36363,686.6878,132.97339,687.7872,136.22168,686.2225C138.81287,684.98615,139.4708,684.00226,139.62016,681.1574C139.80708,677.80164,139.00682,676.2322,136.23677,674.7333C134.52348,673.81885,131.24028,674.17944,129.52419,675.5269 Z"/>
</g>
<g style="fill:rgb(255,255,255); fill-opacity:1.0; stroke-linejoin: miter">
<path d="M83.27891,780.2899C84.487305,776.6438,87.15414,773.51086,90.40199,772.01935C92.88372,770.892,98.318504,770.9355,100.72456,772.1059C103.23969,773.3492,105.49817,775.5041,106.77187,777.9495C107.71748,779.73804,108.154816,780.17615,109.06658,780.35974C109.686264,780.47003,113.95399,780.58496,118.476585,780.5907L126.75644,780.6018L127.59779,778.633C128.58571,776.2635,131.58081,773.2764,134.06227,772.18567C136.39801,771.1308,140.48355,770.88055,142.99902,771.6137C148.35916,773.1888,151.89034,778.33655,151.77296,784.3913C151.65776,788.9135,148.9528,793.10474,144.79276,795.1052C143.00421,795.97845,142.3108,796.0869,139.28354,796.1194C136.29263,796.1154,135.52715,795.96875,133.77733,795.16394C130.89732,793.8107,128.89377,791.8389,127.58409,789.13806L126.493004,786.80206L117.30134,786.8631L108.10948,786.9605L107.45118,788.41864C105.659065,792.2462,102.92025,794.6138,99.01583,795.7393C91.09781,797.9538,83.445335,792.5457,82.908844,784.265C82.83789,782.73334,82.949356,781.2379,83.27891,780.2899 Z M90.01767,787.0464C92.018684,790.9882,99.13163,791.03424,101.0697,787.13403C102.05691,785.2384,101.95212,781.73676,100.89623,780.20337C99.44001,778.0497,98.31004,777.4646,95.610985,777.4608C92.87542,777.4574,91.30584,778.2576,90.02639,780.3351C89.07645,781.86584,89.07201,785.2214,90.01767,787.0464 Z M133.8604,787.13995C135.09766,789.3667,136.19092,789.9153,139.18195,789.9191C141.55313,789.9221,141.91772,789.8132,143.19586,788.79315C143.99889,788.1379,144.87631,786.93536,145.2785,785.9509C145.9369,784.45624,145.97406,784.05536,145.5748,782.55945C144.9574,780.3336,143.93808,778.94604,142.2247,778.0686C140.5481,777.22736,137.88565,777.11456,136.46231,777.8419C135.07545,778.57,133.50438,780.3187,133.10153,781.55835C132.62541,783.05316,132.95021,785.5705,133.8604,787.13995 Z"/>
</g>
<g style="fill:rgb(255,255,255); fill-opacity:1.0; stroke-linejoin: miter">
<path d="M311.07086,1050.1211C314.71695,1048.9127,317.8502,1046.246,319.34152,1042.9982C320.46878,1040.5161,320.42538,1035.0817,319.2551,1032.6759C318.01163,1030.1605,315.8567,1027.9022,313.41125,1026.6283C311.62265,1025.6825,311.1844,1025.2455,311.00085,1024.3336C310.89075,1023.7138,310.77582,1019.4463,310.76987,1014.92395L310.7591,1006.6437L312.72754,1005.80225C315.09738,1004.8143,318.08426,1001.81964,319.17508,999.33777C320.23013,997.0021,320.48022,992.9167,319.747,990.4011C318.17178,985.0412,313.02402,981.5097,306.96964,981.62695C302.44684,981.7422,298.25583,984.4473,296.25528,988.6075C295.38217,990.3958,295.27377,991.0895,295.24115,994.1168C295.2451,997.1076,295.39188,997.87305,296.19662,999.62286C297.5498,1002.5029,299.5221,1004.5065,302.22293,1005.8159L304.5586,1006.9071L304.49774,1016.09875L304.4003,1025.2906L302.94208,1025.9487C299.11462,1027.7411,296.74728,1030.4799,295.62173,1034.3844C293.40714,1042.3024,298.81512,1049.9547,307.0958,1050.4915C308.6278,1050.5623,310.12326,1050.4509,311.07086,1050.1211 Z M304.31458,1043.3821C300.3725,1041.3816,300.32675,1034.2684,304.227,1032.3304C306.12256,1031.3431,309.62402,1031.4479,311.15738,1032.5038C313.31146,1033.9603,313.89645,1035.0898,313.90002,1037.789C313.9036,1040.5245,313.10318,1042.0944,311.02567,1043.3739C309.4949,1044.3236,306.1394,1044.328,304.31458,1043.3821 Z M304.22067,999.53973C301.99417,998.30225,301.4457,997.209,301.44183,994.218C301.43863,991.8469,301.5477,991.4823,302.56744,990.20416C303.2229,989.4009,304.42532,988.52374,305.4097,988.12164C306.90424,987.46295,307.30542,987.426,308.8014,987.8255C311.02713,988.4427,312.4145,989.462,313.29214,991.17535C314.13333,992.8521,314.24625,995.51447,313.51865,996.93774C312.79074,998.32465,311.0421,999.8957,309.80243,1000.2984C308.3077,1000.7746,305.7904,1000.44965,304.22067,999.53973 Z"/>
</g>
<g style="fill:rgb(255,255,255); fill-opacity:1.0; stroke-linejoin: miter">
<path d="M119.89966,980.71783C122.01397,979.69366,125.32908,976.48,126.38389,974.36304C126.89304,973.41364,127.43848,971.80804,127.61974,970.82324C128.56136,965.86127,125.16125,959.7015,120.270546,957.44653L118.11724,956.4644L118.08723,933.3758L118.05729,910.32446L129.45232,893.7496C135.75082,884.6593,141.50298,876.2991,142.2671,875.1309L143.65047,873.05023L152.73297,873.03766L161.77864,873.02527L162.6566,875.0316C163.75421,877.4742,166.23772,879.9515,169.01135,881.29706C170.83624,882.1704,171.52937,882.3155,174.37456,882.3118C177.00073,882.30835,178.0219,882.12427,179.44328,881.4656C182.35959,880.1125,184.21751,878.3591,185.56334,875.6218C186.65433,873.3954,186.7633,872.8846,186.75941,869.8935C186.75583,867.1218,186.5725,866.28326,185.76791,864.5335C184.63388,862.0911,182.15038,859.541,179.81429,858.41315C177.5517,857.32227,173.13777,857.0362,170.47604,857.8057C166.93938,858.8677,163.47847,862.155,162.42519,865.4754L162.02577,866.8261L153.96524,866.87274C144.66388,866.88495,141.01656,867.108,140.36037,867.65594C139.81424,868.0944,133.6616,876.6738,127.9819,884.9246C125.76123,888.1372,121.246605,894.7087,117.89731,899.52783L111.85387,908.2899L111.862045,914.67255C111.86655,918.17426,111.77138,929.04364,111.638145,938.8187L111.442314,956.5823L109.9478,957.1313C107.68759,958.00995,104.80942,960.7129,103.64505,963.12134C102.73594,964.9827,102.627075,965.56665,102.63168,969.03186C102.63607,972.4602,102.7465,973.0434,103.62391,974.68396C104.79394,976.9439,107.4234,979.4207,109.68621,980.43933C112.20444,981.5667,117.74868,981.70544,119.89966,980.71783 Z M111.319595,974.2727C110.77199,973.83563,109.89548,972.9615,109.45669,972.26917C108.287506,970.5926,108.42837,966.8723,109.70267,965.0834C113.1981,960.15497,121.40831,962.80646,121.41627,968.8618C121.41865,970.72174,120.61824,972.29144,118.86934,973.89844C117.33941,975.28644,117.3029,975.28644,114.82248,975.1437C113.034966,975.0368,112.049545,974.819,111.319595,974.2727 Z M171.26505,875.49445C168.89252,874.2572,168.19807,873.0912,168.04826,870.064L167.89908,867.5111L169.9024,865.4657L171.94264,863.4571L174.49586,863.6C177.52359,863.7415,178.69147,864.4335,179.89828,866.8028C180.8856,868.66125,180.99835,871.4332,180.23466,872.9297C178.63382,876.0321,174.58672,877.1686,171.26505,875.49445 Z"/>
</g>
<g style="fill:rgb(255,255,255); fill-opacity:1.0; stroke-linejoin: miter">
<path d="M196.24094,998.15546C199.55908,997.27606,203.20267,994.1708,204.65753,991.0324L205.53058,989.098L216.10791,988.902C227.9984,988.6673,228.21732,988.63116,228.61522,986.1502C228.7601,985.384,228.85878,977.21344,228.84682,967.9851L228.82489,951.17017L230.82962,950.18286C233.70943,948.7565,235.82222,946.6747,237.05872,943.9741C237.9682,942.0036,238.11302,941.2736,238.07295,938.4286C238.0691,935.5472,237.9589,934.8542,237.08101,933.0315C235.9109,930.69836,233.4639,928.33093,230.98215,927.1672C229.6318,926.5489,228.64668,926.4042,225.51006,926.40826C222.19086,926.4127,221.4614,926.5231,220.11288,927.254C217.70715,928.53406,215.41234,930.8351,214.32082,933.09784C212.90198,935.98114,212.72525,940.1757,213.89644,943.2017C214.92117,945.9361,217.36845,948.5591,220.28831,950.0874L222.44168,951.21497L222.57195,967.0089L222.66565,982.7654L214.09402,982.7755L205.55876,982.788L204.57115,980.7827C203.36429,978.3407,200.33311,975.3902,197.96075,974.3354C196.82954,973.86273,195.15138,973.5367,193.18141,973.3937C190.26346,973.2514,190.04454,973.2882,187.45654,974.5681C183.1553,976.6895,180.8619,980.1208,180.46684,984.97266C179.85649,992.3412,184.97032,998.09753,192.33862,998.3432C193.87062,998.41394,195.6213,998.339,196.24094,998.15546 Z M190.21469,991.85333C188.06102,990.7619,186.3797,988.1013,186.41331,985.8768C186.51585,980.36884,193.25983,977.51495,197.24051,981.26654C198.77412,982.68713,199.32306,983.99963,199.32576,986.0789C199.32863,988.30383,198.6739,989.72675,197.07059,990.96893C194.73862,992.7229,192.51382,992.98126,190.21469,991.85333 Z M222.46936,944.28485C220.46205,943.33923,219.21912,941.26196,219.21608,938.89087C219.21294,936.4835,220.0133,934.914,221.90837,933.52563C226.49966,930.20026,232.4859,933.5482,232.01929,939.2023C231.62398,943.8721,226.9219,946.39465,222.46936,944.28485 Z"/>
</g>
<g style="fill:rgb(255,255,255); fill-opacity:1.0; stroke-linejoin: miter">
<path d="M47.849815,851.96014C51.203545,850.6066,53.09802,848.7805,54.84427,845.31305L55.7901,843.4151L61.73533,843.1885C67.899376,842.9617,81.39462,842.725,107.25484,842.3633C131.72897,842.0395,145.47954,841.76636,149.38202,841.5425L153.02942,841.35535L154.30907,843.7615C155.8082,846.6043,158.36467,849.1543,160.80994,850.20886C163.18225,851.26337,167.523,851.51355,169.85637,850.7076C173.61151,849.4263,176.63474,846.28534,178.05186,842.19885C178.92393,839.5713,178.92139,837.67474,178.00606,834.94055C175.99237,829.03406,170.9546,825.7215,164.71788,826.13074C160.37782,826.428,156.91568,828.8035,154.47775,833.1474L153.20401,835.4834L135.04002,835.7252C125.082436,835.84753,112.46254,836.04626,107.06442,836.16296C101.62973,836.2432,87.91569,836.48004,76.57215,836.6038L55.89132,836.8862L54.940346,834.8813C53.806473,832.5116,51.030785,829.7797,48.585506,828.65216C47.19867,827.9975,46.21357,827.853,43.222645,827.85693C39.721222,827.86145,39.465702,827.8979,37.205982,829.178C31.702349,832.2123,29.448153,837.94196,31.316195,843.9942C32.707966,848.3691,35.118305,850.7004,39.71596,852.1169C42.81764,853.06085,45.2979,853.0212,47.849815,851.96014 Z M41.20381,846.24255C35.730255,844.42584,35.355694,836.8399,40.60482,834.27985C42.53672,833.32904,43.886307,833.3272,45.820484,834.19977C48.15646,835.2547,49.39897,837.14996,49.548504,839.84845C49.698143,842.7664,48.679146,844.62787,46.346367,845.83466C44.560146,846.71246,43.064823,846.8601,41.20381,846.24255 Z M162.00517,843.67865C159.37627,841.56647,158.71553,838.4666,160.24373,835.511C161.84467,832.51776,165.45438,831.41833,168.70268,832.98303C171.29385,834.21936,171.95177,835.2033,172.10114,838.0482C172.28804,841.404,171.4878,842.97345,168.71773,844.4722C167.00444,845.38666,163.72124,845.02606,162.00517,843.67865 Z"/>
</g>
<g style="fill:rgb(255,255,255); fill-opacity:1.0; stroke-linejoin: miter">
<path d="M115.75995,738.91565C116.96836,742.56177,119.63519,745.69464,122.88304,747.18616C125.364746,748.3134,130.79955,748.26996,133.20563,747.0996C135.72075,745.8563,137.97923,743.7014,139.25294,741.25604C140.19856,739.4675,140.6359,739.0294,141.54765,738.8458C142.16733,738.73553,146.43506,738.6206,150.95767,738.61487L159.23752,738.60376L160.07887,740.57263C161.06679,742.94214,164.06186,745.9291,166.54332,747.01984C168.87907,748.07465,172.9646,748.32495,175.48007,747.59174C180.84023,746.0167,184.3714,740.869,184.25406,734.8143C184.13885,730.29205,181.4339,726.1008,177.27385,724.10034C175.4853,723.2271,174.79192,723.11865,171.76463,723.0862C168.77371,723.09015,168.00824,723.2368,166.25839,724.0416C163.37839,725.39484,161.37485,727.3667,160.06519,730.0675L158.97409,732.40356L149.78242,732.3425L140.59055,732.24506L139.93225,730.7869C138.14014,726.95935,135.40132,724.5918,131.49692,723.4662C123.57887,721.2517,115.926384,726.65985,115.389885,734.94055C115.31894,736.4722,115.4304,737.96765,115.75995,738.91565 Z M122.49873,732.1592C124.49973,728.21735,131.6127,728.1713,133.55077,732.07153C134.53798,733.96716,134.43318,737.4688,133.3773,739.0022C131.9211,741.1559,130.79112,741.74097,128.09203,741.74475C125.356476,741.74817,123.786896,740.94794,122.507454,738.8705C121.5575,737.3397,121.55306,733.9842,122.49873,732.1592 Z M166.34148,732.0656C167.57874,729.83887,168.672,729.2903,171.66302,729.28644C174.0342,729.28345,174.39879,729.3924,175.67697,730.4124C176.47998,731.0677,177.3574,732.2702,177.7596,733.25464C178.418,734.7493,178.45515,735.1502,178.0559,736.6461C177.43849,738.87195,176.41916,740.2595,174.70578,741.13696C173.02917,741.9782,170.36673,742.091,168.94337,741.36365C167.55653,740.63556,165.98544,738.88684,165.58261,737.6472C165.10648,736.1524,165.43127,733.6351,166.34148,732.0656 Z"/>
</g>
</g>
<g>
<g style="fill:rgb(255,255,255); fill-opacity:1.0; stroke-linejoin: miter">
<path d="M495.64493,449.7323C491.9988,450.94067,488.8656,453.60776,487.37424,456.85544C486.24698,459.33755,486.29037,464.77206,487.46066,467.17786C488.70413,469.69305,490.85907,471.95135,493.3045,473.2252C495.09314,474.1709,495.53137,474.60797,495.71494,475.5199C495.82504,476.13968,495.93994,480.4073,495.94592,484.9296L495.9567,493.20975L493.98813,494.0511C491.61832,495.03906,488.63144,498.03397,487.5406,500.51578C486.48553,502.85147,486.23547,506.9369,486.96866,509.4525C488.5439,514.8124,493.69168,518.3438,499.74606,518.2265C504.2689,518.11127,508.45993,515.4063,510.4605,511.2462C511.3336,509.4577,511.44196,508.76413,511.47458,505.73672C511.47067,502.74594,511.32388,501.98044,510.5191,500.23062C509.16592,497.35065,507.19363,495.34702,504.49277,494.0375L502.1571,492.94635L502.21805,483.7548L502.31546,474.56296L503.7737,473.90472C507.6012,472.11237,509.96854,469.37366,511.09406,465.4692C513.3087,457.55115,507.90073,449.89883,499.62003,449.36212C498.08798,449.2913,496.59253,449.40247,495.64493,449.7323 Z M502.40125,456.4714C506.3433,458.472,506.38904,465.58505,502.48877,467.52313C500.59323,468.51028,497.09174,468.4057,495.5584,467.34976C493.4043,465.89325,492.8193,464.76373,492.81573,462.06454C492.81216,459.32898,493.61258,457.7592,495.69016,456.47968C497.2209,455.5299,500.57642,455.52557,502.40125,456.4714 Z M502.495,500.31363C504.72147,501.5512,505.26993,502.64447,505.2739,505.63547C505.27704,508.00647,505.16797,508.3711,504.14825,509.64935C503.49283,510.4525,502.29047,511.32977,501.306,511.73187C499.8115,512.3905,499.41028,512.4275,497.9143,512.02795C495.6886,511.41086,494.3012,510.39142,493.42352,508.67804C492.58234,507.0014,492.46942,504.33896,493.19702,502.9157C493.92493,501.52872,495.67358,499.95773,496.9133,499.55496C498.40796,499.0788,500.92526,499.4038,502.495,500.31363 Z"/>
</g>
<g style="fill:rgb(255,255,255); fill-opacity:1.0; stroke-linejoin: miter">
<path d="M654.07635,528.9276C651.9621,529.9518,648.6469,533.1654,647.5921,535.28235C647.08295,536.2318,646.53754,537.83734,646.35626,538.82227C645.4146,543.7842,648.81476,549.94403,653.7054,552.199L655.8587,553.18115L655.88873,576.26984L655.9185,599.3211L644.5235,615.89594C638.2249,624.9862,632.47284,633.34644,631.7087,634.5146L630.3254,636.59534L621.243,636.6077L612.1972,636.62024L611.3193,634.6139C610.2216,632.17145,607.7381,629.69415,604.9644,628.3486C603.1396,627.47516,602.4465,627.33014,599.60126,627.33374C596.97516,627.3373,595.9539,627.52136,594.53253,628.17993C591.61615,629.5329,589.75824,631.2864,588.41254,634.0236C587.3215,636.25006,587.2126,636.76086,587.2165,639.7521C587.22003,642.5237,587.4034,643.3623,588.20795,645.11206C589.342,647.5544,591.8254,650.1045,594.16156,651.23236C596.42413,652.32324,600.83795,652.6092,603.4997,651.8397C607.03644,650.77783,610.4974,647.4905,611.5507,644.1701L611.95013,642.8194L620.0107,642.7727C629.31195,642.7607,632.9593,642.53766,633.61554,641.9897C634.1617,641.5512,640.31415,632.9716,645.99384,624.7209C648.21454,621.5083,652.7292,614.9369,656.0784,610.11774L662.1219,601.3556L662.1137,594.97296C662.1092,591.4713,662.2044,580.60187,662.3378,570.8267L662.5336,553.0632L664.02814,552.5141C666.2884,551.63544,669.16656,548.93256,670.3309,546.52405C671.24005,544.6626,671.34894,544.07855,671.3443,540.6134C671.3399,537.185,671.22955,536.6018,670.3521,534.9612C669.18207,532.7013,666.5527,530.2246,664.28986,529.2059C661.77155,528.07874,656.22736,527.93994,654.07635,528.9276 Z M662.65643,535.3726C663.20404,535.8096,664.0806,536.6837,664.51935,537.3761C665.68854,539.0526,665.54767,542.7729,664.27325,544.562C660.7779,549.4906,652.5677,546.83905,652.55975,540.7836C652.5573,538.9237,653.3577,537.354,655.1066,535.74695C656.63666,534.359,656.67316,534.359,659.1535,534.5017C660.941,534.60864,661.92645,534.8265,662.65643,535.3726 Z M602.71075,634.15106C605.0833,635.3883,605.7778,636.5544,605.9277,639.58154L606.0767,642.13446L604.0734,644.1798L602.03314,646.1884L599.4799,646.04553C596.4522,645.90405,595.28436,645.21216,594.0776,642.8428C593.0903,640.98425,592.9775,638.2122,593.74115,636.7158C595.342,633.61334,599.3891,632.477,602.71075,634.15106 Z"/>
</g>
<g style="fill:rgb(255,255,255); fill-opacity:1.0; stroke-linejoin: miter">
<path d="M614.0487,459.42535C610.7306,460.30484,607.0869,463.41,605.6321,466.5484L604.75903,468.48282L594.18164,468.67886C582.29126,468.91354,582.07227,468.9497,581.67444,471.43057C581.52954,472.1968,581.4309,480.3674,581.4429,489.5957L581.4647,506.41058L579.45996,507.3978C576.5802,508.82428,574.46747,510.9061,573.2309,513.6066C572.32135,515.5771,572.1766,516.30707,572.2166,519.15216C572.2205,522.03357,572.33075,522.7265,573.20856,524.5491C574.3787,526.8822,576.82574,529.2496,579.30743,530.41345C580.6578,531.0318,581.6429,531.1766,584.7795,531.1724C588.0987,531.168,588.8282,531.0577,590.1766,530.3267C592.58234,529.04675,594.87714,526.7458,595.9687,524.4831C597.3875,521.5997,597.5643,517.405,596.3931,514.37915C595.36835,511.64478,592.921,509.02173,590.0012,507.49338L587.8479,506.36572L587.71765,490.57193L587.624,474.8154L596.19556,474.80533L604.73096,474.79285L605.7185,476.7981C606.9254,479.2402,609.95654,482.1907,612.32886,483.24548C613.4601,483.71802,615.1382,484.0442,617.10815,484.1872C620.0261,484.3295,620.2451,484.29254,622.833,483.01273C627.1343,480.89136,629.42773,477.46,629.82275,472.6082C630.4331,465.2396,625.31934,459.48337,617.95105,459.2377C616.41907,459.16696,614.66833,459.24188,614.0487,459.42535 Z M620.07495,465.72745C622.22864,466.81885,623.9099,469.47946,623.8762,471.70404C623.7737,477.21194,617.0298,480.06583,613.0491,476.3142C611.5155,474.89368,610.96655,473.58118,610.96387,471.50192C610.96094,469.27692,611.6157,467.85403,613.219,466.61185C615.551,464.85788,617.77576,464.59952,620.07495,465.72745 Z M587.8201,513.2959C589.82745,514.2416,591.0704,516.3189,591.0734,518.69C591.0766,521.09735,590.2762,522.6668,588.38116,524.0551C583.78986,527.38043,577.80365,524.03235,578.2703,518.3784C578.6656,513.70856,583.36774,511.18616,587.8201,513.2959 Z"/>
</g>
<g style="fill:rgb(255,255,255); fill-opacity:1.0; stroke-linejoin: miter">
<path d="M710.9587,667.2454C707.6049,668.59894,705.7105,670.4251,703.9643,673.8926L703.0184,675.7905L697.0732,676.017C690.9091,676.24384,677.4139,676.48047,651.55365,676.84216C627.0794,677.166,613.3289,677.4392,609.42633,677.66315L605.779,677.8503L604.4993,675.4441C603.0002,672.6013,600.4438,670.05133,597.9985,668.99677C595.62616,667.94226,591.28546,667.692,588.9521,668.49805C585.19696,669.7793,582.17377,672.9202,580.75665,677.00684C579.8846,679.6344,579.88715,681.53094,580.8023,684.265C582.8161,690.1715,587.8538,693.4841,594.0905,693.0748C598.4306,692.7776,601.89276,690.4021,604.33075,686.0583L605.60443,683.7222L623.7684,683.48035C633.726,683.35803,646.3459,683.1592,651.7441,683.0425C657.17865,682.96234,670.89276,682.72546,682.2364,682.6016L702.9172,682.31934L703.8682,684.32434C705.00214,686.694,707.7778,689.4259,710.22296,690.5534C711.6098,691.20807,712.5949,691.3526,715.5859,691.3487C719.0872,691.3441,719.34283,691.30774,721.6025,690.02765C727.10614,686.9933,729.3603,681.2636,727.49225,675.2113C726.1005,670.8365,723.6901,668.5052,719.0926,667.0887C715.9909,666.1447,713.51056,666.1843,710.9587,667.2454 Z M717.6047,672.96295C723.0782,674.77966,723.4528,682.3656,718.2037,684.9257C716.2718,685.8765,714.9222,685.87836,712.988,685.00574C710.65204,683.95087,709.4095,682.0556,709.25995,679.3571C709.1104,676.4391,710.12933,674.5777,712.4621,673.3709C714.24835,672.4931,715.7437,672.34546,717.6047,672.96295 Z M596.8033,675.527C599.4322,677.6393,600.09296,680.73914,598.56476,683.6947C596.9637,686.68787,593.35406,687.7872,590.10565,686.22253C587.5146,684.9862,586.8566,684.0023,586.70734,681.1575C586.52045,677.80164,587.3206,676.23224,590.09076,674.73334C591.804,673.8189,595.0872,674.1795,596.8033,675.527 Z"/>
</g>
<g style="fill:rgb(255,255,255); fill-opacity:1.0; stroke-linejoin: miter">
<path d="M643.0483,780.29004C641.84,776.644,639.17316,773.51105,635.92535,772.0195C633.44354,770.8922,628.00885,770.9357,625.60284,772.10614C623.0877,773.3494,620.82916,775.5043,619.5555,777.9497C618.6098,779.7382,618.1724,780.1763,617.2607,780.3599C616.64105,780.47015,612.37335,780.58514,607.85077,780.59094L599.57086,780.60205L598.72955,778.6332C597.74164,776.26373,594.7465,773.2766,592.2651,772.1858C589.92926,771.1309,585.8438,770.8807,583.3283,771.6139C577.9682,773.18896,574.4371,778.33673,574.5544,784.3915C574.6695,788.91364,577.37445,793.10486,581.5345,795.1053C583.32306,795.9786,584.0164,796.08704,587.04364,796.1195C590.0346,796.11554,590.8001,795.9689,592.54987,795.164C595.4299,793.81085,597.4334,791.83905,598.7431,789.1382L599.83417,786.8022L609.02594,786.8632L618.21783,786.9607L618.87616,788.4188C620.6683,792.24634,623.40704,794.6139,627.31146,795.7395C635.22943,797.9539,642.8819,792.54584,643.4184,784.26514C643.4893,782.7334,643.37787,781.23804,643.0483,780.29004 Z M636.30963,787.0465C634.30865,790.98834,627.1956,791.0344,625.2576,787.1342C624.2703,785.2386,624.3752,781.7369,625.4311,780.20355C626.8874,778.0499,628.0173,777.46484,630.7164,777.46106C633.45197,777.45764,635.0214,778.25775,636.30084,780.3352C637.2508,781.86597,637.2552,785.2215,636.30963,787.0465 Z M592.46686,787.1401C591.22955,789.3668,590.1363,789.91534,587.1453,789.9192C584.7741,789.92224,584.4095,789.8133,583.1314,788.7933C582.3283,788.138,581.45087,786.9354,581.04877,785.95105C580.39044,784.4565,580.35333,784.0556,580.7525,782.5597C581.36993,780.33386,582.3892,778.9462,584.1026,778.06885C585.77924,777.22754,588.4417,777.11475,589.86505,777.84216C591.2519,778.57025,592.82294,780.319,593.22577,781.55853C593.70184,783.0534,593.37714,785.5707,592.46686,787.1401 Z"/>
</g>
<g style="fill:rgb(255,255,255); fill-opacity:1.0; stroke-linejoin: miter">
<path d="M415.25577,1050.1211C411.6098,1048.9127,408.47656,1046.246,406.98523,1042.9982C405.85797,1040.5161,405.90137,1035.0817,407.07166,1032.6759C408.31512,1030.1605,410.47006,1027.9022,412.9155,1026.6283C414.7041,1025.6825,415.14236,1025.2455,415.3259,1024.3336C415.436,1023.7138,415.55093,1019.4463,415.5569,1014.92395L415.56766,1006.6437L413.5992,1005.80225C411.22937,1004.8143,408.24252,1001.81976,407.15167,999.3379C406.09662,997.0022,405.84653,992.9168,406.5798,990.4013C408.15503,985.04144,413.3028,981.50995,419.35715,981.62714C423.87994,981.74243,428.07098,984.4475,430.0715,988.60767C430.94464,990.396,431.053,991.08966,431.0856,994.11694C431.08167,997.1077,430.9349,997.87317,430.13013,999.623C428.77695,1002.5029,426.80463,1004.5065,424.10382,1005.8159L421.76813,1006.9071L421.829,1016.09875L421.92645,1025.2906L423.38467,1025.9487C427.21213,1027.7411,429.57947,1030.4799,430.705,1034.3844C432.91962,1042.3022,427.51163,1049.9547,419.23083,1050.4915C417.69885,1050.5623,416.2034,1050.4509,415.25577,1050.1211 Z M422.01218,1043.3821C425.95422,1041.3816,426.0,1034.2684,422.09976,1032.3304C420.2042,1031.3431,416.70273,1031.4479,415.16937,1032.5038C413.0153,1033.9603,412.4303,1035.0898,412.42673,1037.789C412.42316,1040.5245,413.22357,1042.0944,415.3011,1043.3739C416.83185,1044.3236,420.18735,1044.328,422.01218,1043.3821 Z M422.10608,999.53986C424.33258,998.30237,424.88104,997.2091,424.88492,994.21814C424.88812,991.84705,424.77905,991.4824,423.75937,990.2044C423.1039,989.4011,421.9015,988.524,420.9171,988.1219C419.42258,987.4632,419.02136,987.4263,417.5254,987.82574C415.29965,988.44293,413.91232,989.4622,413.03467,991.1756C412.19342,992.85223,412.0805,995.5146,412.8081,996.93787C413.53604,998.32477,415.28467,999.8958,416.52435,1000.2985C418.01907,1000.7747,420.53635,1000.44977,422.10608,999.53986 Z"/>
</g>
<g style="fill:rgb(255,255,255); fill-opacity:1.0; stroke-linejoin: miter">
<path d="M606.42706,980.71783C604.3128,979.69366,600.9976,976.48,599.9428,974.36304C599.43365,973.41376,598.88824,971.8081,598.707,970.82324C597.76544,965.8613,601.16547,959.70154,606.05634,957.4467L608.20966,956.46454L608.2397,933.37573L608.2696,910.3245L596.8746,893.74976C590.5761,884.6595,584.8239,876.2992,584.05975,875.13104L582.67645,873.0504L573.59406,873.03784L564.5484,873.02545L563.67035,875.0318C562.5727,877.47424,560.0892,879.95154,557.3155,881.2971C555.49066,882.1705,554.79755,882.3155,551.95245,882.3119C549.32623,882.30835,548.3051,882.12427,546.8837,881.4656C543.96735,880.11255,542.10944,878.3591,540.7636,875.6218C539.67267,873.39557,539.56366,872.8847,539.56757,869.8936C539.5712,867.122,539.75446,866.2834,540.55914,864.5336C541.6932,862.0913,544.1766,859.5412,546.51276,858.41327C548.7753,857.3224,553.1893,857.0363,555.851,857.8058C559.38763,858.86774,562.8486,862.1552,563.9018,865.4756L564.3012,866.8263L572.36176,866.8729C581.66315,866.88513,585.3105,867.10815,585.9666,867.6561C586.51276,868.0946,592.66534,876.674,598.3449,884.9248C600.5656,888.1374,605.0804,894.709,608.4296,899.5281L614.4731,908.29L614.4649,914.67255C614.4604,918.17426,614.5556,929.0437,614.6888,938.8189L614.8846,956.5825L616.3792,957.13153C618.63934,958.0102,621.5175,960.71313,622.6818,963.1216C623.591,964.983,623.6999,965.5669,623.69525,969.0321C623.69073,972.4603,623.5804,973.0436,622.70294,974.684C621.5329,976.944,618.9034,979.4208,616.64056,980.4394C614.1224,981.5668,608.57806,981.70544,606.42706,980.71783 Z M615.00726,974.27277C615.5549,973.8358,616.43134,972.9617,616.8702,972.2692C618.03937,970.5927,617.8986,966.87256,616.6243,965.08356C613.12885,960.15515,604.9185,962.80664,604.9106,968.862C604.90814,970.7218,605.70844,972.2915,607.45734,973.89856C608.98737,975.28644,609.02386,975.28644,611.5042,975.1436C613.2918,975.0368,614.2773,974.819,615.00726,974.27277 Z M555.0618,875.49445C557.4344,874.2574,558.12885,873.0914,558.27875,870.0642L558.4279,867.5112L556.4246,865.4659L554.38434,863.4572L551.8311,863.6001C548.8034,863.7417,547.63556,864.4336,546.4288,866.803C545.44135,868.66144,545.3287,871.4334,546.09235,872.9299C547.6932,876.03217,551.7403,877.16864,555.0618,875.49445 Z"/>
</g>
<g style="fill:rgb(255,255,255); fill-opacity:1.0; stroke-linejoin: miter">
<path d="M530.0859,998.1556C526.76764,997.2761,523.1241,994.1709,521.66925,991.0325L520.7962,989.09814L510.2189,988.9021C498.3284,988.6675,498.1095,988.6313,497.71158,986.1504C497.5667,985.38416,497.46805,977.2136,497.48,967.9851L497.50195,951.1702L495.4972,950.183C492.61737,948.75653,490.5046,946.6748,489.26813,943.97424C488.35867,942.0037,488.21384,941.27374,488.254,938.4287C488.2578,935.54736,488.36804,934.8544,489.24594,933.0317C490.41605,930.69855,492.86304,928.3311,495.34482,927.16736C496.69516,926.54895,497.68024,926.40424,500.8169,926.4084C504.13608,926.41284,504.86554,926.5232,506.21405,927.25415C508.61978,928.5341,510.9146,930.8351,512.0061,933.09784C513.425,935.9812,513.6016,940.1757,512.4304,943.2017C511.40564,945.93604,508.95837,948.5591,506.0385,950.08746L503.88516,951.215L503.7549,967.009L503.6612,982.76556L512.23285,982.77563L520.768,982.7881L521.7557,980.78284C522.9626,978.3408,525.9937,975.3903,528.366,974.3355C529.49725,973.86285,531.17535,973.5368,533.1453,973.3938C536.0633,973.2514,536.2823,973.2883,538.8702,974.5682C543.17145,976.6896,545.4649,980.1209,545.8599,984.9728C546.4703,992.3413,541.3564,998.09766,533.9881,998.3433C532.4561,998.414,530.7055,998.33905,530.0859,998.1556 Z M536.1121,991.85345C538.2657,990.762,539.9471,988.10144,539.9134,985.8769C539.81085,980.36896,533.06696,977.5151,529.08624,981.26666C527.5527,982.68726,527.0037,983.99976,527.00104,986.07904C526.9981,988.30396,527.6529,989.7268,529.25616,990.969C531.5881,992.723,533.8129,992.9813,536.1121,991.85345 Z M503.85748,944.28485C505.8648,943.33923,507.10773,941.26196,507.1108,938.89087C507.114,936.4836,506.31366,934.91406,504.41858,933.5257C499.82733,930.2004,493.84103,933.54834,494.3076,939.2024C494.70285,943.8722,499.4049,946.39465,503.85748,944.28485 Z"/>
</g>
<g style="fill:rgb(255,255,255); fill-opacity:1.0; stroke-linejoin: miter">
<path d="M678.47736,851.96014C675.1236,850.6067,673.22906,848.7805,671.48285,845.31305L670.53705,843.4151L664.59186,843.1886C658.4278,842.9618,644.93256,842.7251,619.0723,842.36346C594.5981,842.0396,580.8475,841.7665,576.945,841.5426L573.29767,841.3554L572.018,843.7616C570.51886,846.6044,567.96234,849.1544,565.517,850.2089C563.1447,851.2635,558.804,851.5137,556.47064,850.7077C552.7155,849.42633,549.6923,846.28546,548.2752,842.19885C547.40314,839.5713,547.4056,837.67474,548.321,834.9405C550.33466,829.03406,555.3725,825.7215,561.6092,826.1307C565.9493,826.428,569.41144,828.8035,571.8493,833.1474L573.1231,835.48346L591.28705,835.7253C601.2447,835.8476,613.8647,836.0465,619.26276,836.16315C624.69745,836.2434,638.41156,836.4802,649.75507,836.60394L670.43585,836.88635L671.3868,834.88135C672.5207,832.5117,675.29645,829.77985,677.74176,828.6523C679.1286,827.9976,680.1137,827.85315,683.1047,827.857C686.606,827.8616,686.8615,827.89795,689.1213,829.17804C694.62494,832.21234,696.8791,837.9421,695.0109,843.99426C693.6192,848.3691,691.2088,850.70044,686.61115,852.1169C683.50946,853.0609,681.02924,853.02124,678.47736,851.96014 Z M685.12335,846.2426C690.59686,844.4259,690.9716,836.84,685.7225,834.27997C683.7906,833.3291,682.441,833.3273,680.5068,834.1999C678.17084,835.2548,676.9283,837.15,676.77875,839.8486C676.6291,842.76654,677.648,844.6279,679.9808,845.83466C681.767,846.71246,683.26227,846.8601,685.12335,846.2426 Z M564.32184,843.6787C566.95074,841.5664,567.6115,838.4666,566.0833,835.511C564.48236,832.5177,560.8726,831.41833,557.6243,832.983C555.03314,834.21936,554.3753,835.2033,554.2259,838.0482C554.039,841.404,554.8393,842.97345,557.6093,844.47235C559.3226,845.3867,562.6058,845.0262,564.32184,843.6787 Z"/>
</g>
<g style="fill:rgb(255,255,255); fill-opacity:1.0; stroke-linejoin: miter">
<path d="M610.56744,738.9157C609.35895,742.5619,606.6922,745.6948,603.4444,747.18634C600.9626,748.3136,595.5278,748.2701,593.12177,747.09973C590.6066,745.8565,588.3482,743.70154,587.0744,741.25616C586.12885,739.46765,585.6916,739.02954,584.77985,738.84595C584.1601,738.73566,579.8924,738.6207,575.3698,738.615L567.0898,738.6039L566.2485,740.57275C565.26056,742.94226,562.26544,745.92926,559.784,747.02C557.4482,748.07477,553.3626,748.325,550.8472,747.5919C545.4871,746.0169,541.9559,740.86914,542.0733,734.8144C542.18854,730.2921,544.8935,726.1009,549.0535,724.1004C550.842,723.2272,551.53546,723.11865,554.5627,723.08624C557.55365,723.0902,558.31903,723.2368,560.0689,724.0417C562.9489,725.39484,564.95245,727.36676,566.26215,730.0676L567.3532,732.4037L576.5451,732.34265L585.7369,732.2452L586.3952,730.78705C588.1873,726.9594,590.9261,724.59186,594.8305,723.46625C602.7485,721.2518,610.40094,726.65985,610.93744,734.9406C611.00836,736.4723,610.8969,737.9677,610.56744,738.9157 Z M603.8287,732.15924C601.8276,728.2174,594.7148,728.1714,592.77655,732.07166C591.78937,733.9672,591.8942,737.46893,592.95013,739.0023C594.4063,741.15594,595.5363,741.741,598.2354,741.7448C600.9709,741.7482,602.54047,740.94806,603.8199,738.8706C604.76984,737.33984,604.77435,733.9843,603.8287,732.15924 Z M559.9858,732.06573C558.7486,729.839,557.65533,729.29034,554.66425,729.2865C552.29315,729.28345,551.9285,729.39246,550.6503,730.41254C549.84735,731.0678,548.9699,732.2703,548.5677,733.25476C547.90936,734.7494,547.87213,735.15027,548.2714,736.64624C548.88885,738.872,549.90814,740.25964,551.6215,741.1371C553.29816,741.97833,555.9605,742.0911,557.384,741.3637C558.7708,740.6357,560.34186,738.8869,560.7447,737.64734C561.22076,736.1525,560.89606,733.6352,559.9858,732.06573 Z"/>
</g>
</g>
</g>
</svg>